# xmcd CD database file
#
# Track frame offsets:
#	150
#	16835
#	36722
#
# Disc length: 762 seconds
#
# Revision: 0
# Processed by: cddbd v1.5PL3 Copyright (c) Steve Scherf et al.
# Submitted via: CDex 1.50
#
DISCID=1f02f803
DTITLE=HARCO - Enoshima Rapsody
DYEAR=1900
DGENRE=Pop
TTITLE0=Enoshima Rapsody
TTITLE1=Apartment
TTITLE2=Metro Freaks
EXTD=
EXTT0=
EXTT1=
EXTT2=
PLAYORDER=
